<svg xmlns="http://www.w3.org/2000/svg" version="1.1" xmlns:xlink="http://www.w3.org/1999/xlink" xmlns:svgjs="http://svgjs.dev/svgjs" width="1500" height="2764" viewBox="0 0 1500 2764"><g transform="matrix(1,0,0,1,2.028196661349284,1.1190283400808312)"><svg viewBox="0 0 134 247" data-background-color="#ffffff" preserveAspectRatio="xMidYMid meet" height="2764" width="1500" xmlns="http://www.w3.org/2000/svg" xmlns:xlink="http://www.w3.org/1999/xlink"><g id="tight-bounds" transform="matrix(1,0,0,1,-0.18118556841386635,-0.09999999999999432)"><svg viewBox="0 0 134.36237113682776 247.2" height="247.2" width="134.36237113682776"><g><svg></svg></g><g><svg viewBox="0 0 134.36237113682776 247.2" height="247.2" width="134.36237113682776"><g transform="matrix(1,0,0,1,0,47.215199999999996)"><svg viewBox="0 0 134.36237113682776 152.7696" height="152.7696" width="134.36237113682776"><g><svg viewBox="0 0 134.36237113682776 152.7696" height="152.7696" width="134.36237113682776"><g><svg viewBox="0 0 134.3623711368278 152.76960000000003" height="152.7696" width="134.36237113682776"><g><svg viewBox="0 0 134.3623711368278 152.76960000000003" height="152.76960000000003" width="134.3623711368278"><g id="textblocktransform"><svg viewBox="0 0 134.3623711368278 152.76960000000003" height="152.76960000000003" width="134.3623711368278" id="textblock"><g><svg viewBox="0 0 134.3623711368278 152.76960000000003" height="152.76960000000003" width="134.3623711368278"><g transform="matrix(1,0,0,1,0,0)"><svg width="134.3623711368278" viewBox="2.12 -35.5 31.539999999999996 35.870000000000005" height="152.76960000000003" data-palette-color="#915eff"><path d="M12.06 0.37L12.06 0.37Q10.79 0.37 9.85 0.24 8.91 0.12 7.81-0.31 6.71-0.73 5.94-1.49 5.18-2.25 4.41-3.59 3.64-4.93 3.17-6.8 2.71-8.67 2.42-11.39 2.12-14.11 2.12-17.58L2.12-17.58Q2.12-22.27 2.7-25.63 3.27-29 4.15-30.88 5.03-32.76 6.43-33.84 7.84-34.91 9.12-35.21 10.4-35.5 12.18-35.5L12.18-35.5Q14.45-35.5 15.92-34.81L15.92-34.81Q15.94-34.79 15.99-34.75 16.04-34.72 16.08-34.68 16.11-34.64 16.14-34.56 16.16-34.47 16.16-34.35L16.16-34.35 16.16-31.4Q16.16-31.05 15.99-31.05L15.99-31.05Q15.97-31.05 15.81-31.1 15.65-31.15 15.36-31.23 15.06-31.3 14.72-31.37 14.38-31.45 13.93-31.49 13.48-31.54 13.04-31.54L13.04-31.54Q11.89-31.54 11.08-31.29 10.28-31.03 9.45-30.19 8.62-29.35 8.11-27.86 7.59-26.37 7.28-23.78 6.96-21.19 6.96-17.58L6.96-17.58Q6.96-13.89 7.24-11.3 7.52-8.72 7.96-7.21 8.4-5.71 9.18-4.88 9.96-4.05 10.74-3.81 11.52-3.56 12.7-3.56L12.7-3.56Q14.43-3.56 15.77-4.03L15.77-4.03Q15.8-4.03 15.88-3.78 15.97-3.54 15.97-3.52L15.97-3.52 15.97-0.71Q15.97-0.68 15.88-0.45 15.8-0.22 15.77-0.2L15.77-0.2Q14.28 0.37 12.06 0.37ZM33.03 0L20.14 0Q19.94 0 19.82-0.05 19.7-0.1 19.61-0.32 19.53-0.54 19.53-0.98L19.53-0.98 19.53-2.44Q19.53-3.3 19.92-4.52L19.92-4.52 27.54-30.4Q27.63-30.59 27.63-30.83L27.63-30.83Q27.63-31.23 27.46-31.23L27.46-31.23 20.36-31.23Q20.14-31.23 20.03-31.27 19.92-31.32 19.83-31.54 19.75-31.76 19.75-32.2L19.75-32.2 19.75-34.13Q19.75-34.74 19.89-34.92 20.04-35.11 20.36-35.11L20.36-35.11 32.74-35.11Q32.93-35.11 33.05-35.06 33.18-35.01 33.26-34.79 33.35-34.57 33.35-34.13L33.35-34.13 33.35-33.03Q33.35-32.03 32.93-30.54L32.93-30.54 25.22-4.61Q25.17-4.37 25.17-4.22L25.17-4.22Q25.17-3.88 25.31-3.88L25.31-3.88 33.03-3.88Q33.05-3.88 33.13-3.88L33.13-3.88Q33.32-3.88 33.41-3.86 33.49-3.83 33.58-3.64 33.66-3.44 33.66-3.05L33.66-3.05 33.66-0.98Q33.66-0.37 33.51-0.18 33.35 0 33.03 0L33.03 0Z" opacity="1" transform="matrix(1,0,0,1,0,0)" fill="#915eff" class="wordmark-text-0" data-fill-palette-color="primary" id="text-0"></path></svg></g></svg></g></svg></g></svg></g><g></g></svg></g></svg></g></svg></g><path d="M0 41.215L0 1 134.362 1 134.362 41.215 120.585 41.215 120.585 14.777 13.777 14.777 13.777 41.215 0 41.215M0 205.985L0 246.2 134.362 246.2 134.362 205.985 120.585 205.985 120.585 232.423 13.777 232.423 13.777 205.985 0 205.985" fill="#915eff" stroke="transparent" data-fill-palette-color="tertiary"></path></svg></g><defs></defs></svg><rect width="134.36237113682776" height="247.2" fill="none" stroke="none" visibility="hidden"></rect></g></svg></g></svg>